<svg xmlns="http://www.w3.org/2000/svg" version="1.1" xmlns:xlink="http://www.w3.org/1999/xlink" xmlns:svgjs="http://svgjs.com/svgjs" width="1920" height="1080" preserveAspectRatio="none" viewBox="0 0 1920 1080"><g mask="url(&quot;#SvgjsMask1012&quot;)" fill="none"><rect width="1920" height="1080" x="0" y="0" fill="rgba(34, 37, 46, 1)"></rect><path d="M1979.42 765.05C1840.13 764.03 1709.13 630.05 1438.85 630.05 1168.56 630.05 1218.8 794.63 898.27 765.05 577.75 735.47 581 39.91 357.7-69.14" stroke="rgba(114, 176, 29, 1)" stroke-width="2"></path><path d="M2088.1 344.41C1867.62 346.34 1672.47 573.53 1235.8 571.21 799.12 568.89 643.5-6.75 383.49-36.84" stroke="rgba(114, 176, 29, 1)" stroke-width="2"></path><path d="M1976.8 877.99C1844.39 876.86 1720.71 742.99 1464.63 742.99 1208.54 742.99 1291.01 942.54 952.46 877.99 613.91 813.44 677.37-6.15 440.29-179.64" stroke="rgba(114, 176, 29, 1)" stroke-width="2"></path><path d="M2172.92 946.47C1987.79 938.04 1854.31 708.38 1506.18 622.47 1158.05 536.56 1328.37 35.55 1172.81-81.64" stroke="rgba(114, 176, 29, 1)" stroke-width="2"></path><path d="M2260.52 868.18C2044.87 851.82 1970.27 477.35 1517.37 425.38 1064.47 373.41 1012.15-150.33 774.22-188.23" stroke="rgba(114, 176, 29, 1)" stroke-width="2"></path></g><defs><mask id="SvgjsMask1012"><rect width="1920" height="1080" fill="#ffffff"></rect></mask></defs></svg>