<svg xmlns="http://www.w3.org/2000/svg" version="1.1" xmlns:xlink="http://www.w3.org/1999/xlink" xmlns:svgjs="http://svgjs.com/svgjs" width="1920" height="1080" preserveAspectRatio="none" viewBox="0 0 1920 1080"><g mask="url(&quot;#SvgjsMask1023&quot;)" fill="none"><rect width="1920" height="1080" x="0" y="0" fill="rgba(34, 37, 46, 1)"></rect><path d="M622.81 1209.58C814.5 1126.23 673.92 565.36 1101.93 524.37 1529.93 483.38 1812 267.44 2060.16 265.17" stroke="rgba(114, 176, 29, 1)" stroke-width="2"></path><path d="M1239.01 1191.43C1450.1 1100.96 1413.84 513.43 1768.66 440.86 2123.48 368.29 2153.28 208.62 2298.31 203.26" stroke="rgba(114, 176, 29, 1)" stroke-width="2"></path><path d="M1140.84 1293.03C1369.27 1163.38 1387.76 392.48 1670.92 385.92 1954.09 379.36 2021.64 854.89 2201.01 893.52" stroke="rgba(114, 176, 29, 1)" stroke-width="2"></path><path d="M434.3 1264.32C689.4 1249.98 832.92 812.4 1338.14 787.28 1843.36 762.16 1991.77 366.19 2241.98 355.28" stroke="rgba(114, 176, 29, 1)" stroke-width="2"></path><path d="M318.07 1129.94C587.63 1080.83 721.37 407.1 1140.55 405.55 1559.72 404 1734.65 794.76 1963.02 805.15" stroke="rgba(114, 176, 29, 1)" stroke-width="2"></path></g><defs><mask id="SvgjsMask1023"><rect width="1920" height="1080" fill="#ffffff"></rect></mask></defs></svg>