<svg xmlns="http://www.w3.org/2000/svg" version="1.1" xmlns:xlink="http://www.w3.org/1999/xlink" xmlns:svgjs="http://svgjs.com/svgjs" width="1920" height="1080" preserveAspectRatio="none" viewBox="0 0 1920 1080"><g mask="url(&quot;#SvgjsMask11742&quot;)" fill="none"><rect width="1920" height="1080" x="0" y="0" fill="rgba(34, 37, 46, 1)"></rect><path d="M130.39 282.86L117.8 280.54 117.3 267.74 104.71 265.42 104.21 252.62 91.62 250.29 91.12 237.5M136.44 277.63L123.85 275.3 123.35 262.51 110.76 260.18 110.26 247.38 97.67 245.06 97.17 232.26M142.49 272.39L129.89 270.07 129.4 257.27 116.8 254.94 116.31 242.15 103.72 239.82 103.22 227.03" stroke="rgba(63, 125, 32, 1)" stroke-width="2.1"></path><rect width="433.96" height="433.96" clip-path="url(&quot;#SvgjsClipPath11743&quot;)" x="-119.05" y="108.59" fill="url(#SvgjsPattern11744)" transform="rotate(314.91, 97.93, 325.57)"></rect><circle r="90" cx="1184.84" cy="801.3" stroke="rgba(230, 57, 70, 1)" stroke-width="2.37"></circle><path d="M569.15 526.47L568.89 539.27 556.34 541.82 556.07 554.63 543.52 557.18 543.25 569.98 530.7 572.53M563.01 521.34L562.75 534.15 550.2 536.7 549.93 549.5 537.38 552.05 537.11 564.85 524.56 567.4" stroke="rgba(114, 176, 29, 1)" stroke-width="1" stroke-dasharray="3, 2"></path><path d="M931.07 121.71a5.6 5.6 0 1 0 11.05-1.84 5.6 5.6 0 1 0-11.05 1.84zM946.85 119.08a5.6 5.6 0 1 0 11.05-1.85 5.6 5.6 0 1 0-11.05 1.85zM962.63 116.44a5.6 5.6 0 1 0 11.05-1.84 5.6 5.6 0 1 0-11.05 1.84zM978.41 113.81a5.6 5.6 0 1 0 11.05-1.85 5.6 5.6 0 1 0-11.05 1.85zM902.14 142.76a5.6 5.6 0 1 0 11.05-1.84 5.6 5.6 0 1 0-11.05 1.84zM917.92 140.13a5.6 5.6 0 1 0 11.05-1.85 5.6 5.6 0 1 0-11.05 1.85zM933.7 137.49a5.6 5.6 0 1 0 11.05-1.84 5.6 5.6 0 1 0-11.05 1.84zM949.49 134.86a5.6 5.6 0 1 0 11.04-1.85 5.6 5.6 0 1 0-11.04 1.85zM873.21 163.82a5.6 5.6 0 1 0 11.05-1.85 5.6 5.6 0 1 0-11.05 1.85zM889 161.18a5.6 5.6 0 1 0 11.04-1.84 5.6 5.6 0 1 0-11.04 1.84zM904.78 158.55a5.6 5.6 0 1 0 11.04-1.85 5.6 5.6 0 1 0-11.04 1.85zM920.56 155.91a5.6 5.6 0 1 0 11.05-1.84 5.6 5.6 0 1 0-11.05 1.84z" fill="rgba(230, 57, 70, 1)"></path><path d="M1446.83 417.51 L1627.17 583.52L1399.6709700938645 637.8440299061355z" fill="rgba(114, 176, 29, 1)"></path><path d="M982.92 582.2a5.6 5.6 0 1 0 0.9-11.16 5.6 5.6 0 1 0-0.9 11.16zM984.21 566.25a5.6 5.6 0 1 0 0.9-11.16 5.6 5.6 0 1 0-0.9 11.16zM985.5 550.3a5.6 5.6 0 1 0 0.91-11.16 5.6 5.6 0 1 0-0.91 11.16zM986.79 534.36a5.6 5.6 0 1 0 0.91-11.17 5.6 5.6 0 1 0-0.91 11.17z" stroke="rgba(90, 127, 255, 1)" stroke-width="1.64" stroke-dasharray="3, 3"></path><path d="M445.9 577.9599999999999 L409.84999999999997 723.47L511.87438055708697 734.7143805570869z" fill="rgba(90, 127, 255, 1)"></path></g><defs><mask id="SvgjsMask11742"><rect width="1920" height="1080" fill="#ffffff"></rect></mask><pattern x="0" y="0" width="11.42" height="11.42" patternUnits="userSpaceOnUse" id="SvgjsPattern11744"><path d="M5.71 1L5.71 10.42M1 5.71L10.42 5.71" stroke="rgba(63, 125, 32, 1)" fill="none" stroke-width="2.1"></path></pattern><clipPath id="SvgjsClipPath11743"><circle r="108.49" cx="97.93" cy="325.57"></circle></clipPath></defs></svg>