<svg xmlns="http://www.w3.org/2000/svg" version="1.1" xmlns:xlink="http://www.w3.org/1999/xlink" xmlns:svgjs="http://svgjs.com/svgjs" width="1920" height="800" preserveAspectRatio="none" viewBox="0 0 1920 800"><g mask="url(&quot;#SvgjsMask4204&quot;)" fill="none"><rect width="1920" height="800" x="0" y="0" fill="rgba(34, 37, 46, 1)"></rect><path d="M1439.87 606.22 L1353.6599999999999 583.16L1449.6707829662935 541.7842170337065z" fill="rgba(114, 176, 29, 1)"></path><rect width="504" height="504" clip-path="url(&quot;#SvgjsClipPath4205&quot;)" x="100.09" y="213.58" fill="url(#SvgjsPattern4206)" transform="rotate(33, 352.09, 465.58)"></rect><path d="M1301.14 718.3299999999999 L1191.9 515.9499999999999L1126.2537187236128 737.4062812763871z" stroke="rgba(176, 141, 29, 1)" stroke-width="1" stroke-dasharray="3, 3"></path><circle r="66.66666666666667" cx="871.28" cy="679.6" fill="rgba(176, 141, 29, 1)"></circle><rect width="312" height="312" clip-path="url(&quot;#SvgjsClipPath4207&quot;)" x="1568.13" y="540.44" fill="url(#SvgjsPattern4208)" transform="rotate(316.13, 1724.13, 696.44)"></rect><path d="M1076.64 464.94 L831.99 504.99L1071.0757527230637 601.7257527230638z" fill="rgba(176, 141, 29, 1)"></path><path d="M476.4 1.1a5.6 5.6 0 1 0 11.2-0.13 5.6 5.6 0 1 0-11.2 0.13zM492.4 0.92a5.6 5.6 0 1 0 11.2-0.13 5.6 5.6 0 1 0-11.2 0.13zM508.4 0.73a5.6 5.6 0 1 0 11.2-0.13 5.6 5.6 0 1 0-11.2 0.13zM524.4 0.55a5.6 5.6 0 1 0 11.2-0.13 5.6 5.6 0 1 0-11.2 0.13zM444.59 17.47a5.6 5.6 0 1 0 11.2-0.13 5.6 5.6 0 1 0-11.2 0.13zM460.58 17.28a5.6 5.6 0 1 0 11.2-0.12 5.6 5.6 0 1 0-11.2 0.12zM476.58 17.1a5.6 5.6 0 1 0 11.2-0.13 5.6 5.6 0 1 0-11.2 0.13zM492.58 16.92a5.6 5.6 0 1 0 11.2-0.13 5.6 5.6 0 1 0-11.2 0.13zM412.77 33.84a5.6 5.6 0 1 0 11.2-0.13 5.6 5.6 0 1 0-11.2 0.13zM428.77 33.65a5.6 5.6 0 1 0 11.2-0.13 5.6 5.6 0 1 0-11.2 0.13zM444.77 33.47a5.6 5.6 0 1 0 11.2-0.13 5.6 5.6 0 1 0-11.2 0.13zM460.77 33.28a5.6 5.6 0 1 0 11.2-0.13 5.6 5.6 0 1 0-11.2 0.13z" stroke="rgba(63, 125, 32, 1)" stroke-width="2.4" stroke-dasharray="3, 3"></path><path d="M1456.07 447.65a5.6 5.6 0 1 0-7.43-8.38 5.6 5.6 0 1 0 7.43 8.38zM1445.46 435.67a5.6 5.6 0 1 0-7.42-8.38 5.6 5.6 0 1 0 7.42 8.38zM1434.86 423.69a5.6 5.6 0 1 0-7.43-8.38 5.6 5.6 0 1 0 7.43 8.38zM1424.25 411.71a5.6 5.6 0 1 0-7.42-8.38 5.6 5.6 0 1 0 7.42 8.38zM1489.26 461a5.6 5.6 0 1 0-7.42-8.38 5.6 5.6 0 1 0 7.42 8.38zM1478.65 449.02a5.6 5.6 0 1 0-7.42-8.38 5.6 5.6 0 1 0 7.42 8.38zM1468.05 437.04a5.6 5.6 0 1 0-7.43-8.38 5.6 5.6 0 1 0 7.43 8.38zM1457.44 425.07a5.6 5.6 0 1 0-7.42-8.39 5.6 5.6 0 1 0 7.42 8.39zM1522.45 474.36a5.6 5.6 0 1 0-7.42-8.39 5.6 5.6 0 1 0 7.42 8.39zM1511.85 462.38a5.6 5.6 0 1 0-7.43-8.39 5.6 5.6 0 1 0 7.43 8.39zM1501.24 450.4a5.6 5.6 0 1 0-7.42-8.39 5.6 5.6 0 1 0 7.42 8.39zM1490.63 438.42a5.6 5.6 0 1 0-7.42-8.39 5.6 5.6 0 1 0 7.42 8.39z" stroke="rgba(176, 141, 29, 1)" stroke-width="2.65" stroke-dasharray="3, 2"></path><rect width="120" height="120" clip-path="url(&quot;#SvgjsClipPath4209&quot;)" x="493.13" y="317.86" fill="url(#SvgjsPattern4210)" transform="rotate(220.66, 553.13, 377.86)"></rect><rect width="181.12" height="181.12" clip-path="url(&quot;#SvgjsClipPath4211&quot;)" x="1313.45" y="608.5" fill="url(#SvgjsPattern4212)" transform="rotate(312.84, 1404.01, 699.06)"></rect><circle r="88.04936426126761" cx="288.59" cy="130.76" fill="rgba(63, 125, 32, 1)"></circle></g><defs><mask id="SvgjsMask4204"><rect width="1920" height="800" fill="#ffffff"></rect></mask><pattern x="0" y="0" width="6" height="6" patternUnits="userSpaceOnUse" id="SvgjsPattern4206"><path d="M0 6L3 0L6 6" stroke="rgba(230, 57, 70, 1)" fill="none"></path></pattern><clipPath id="SvgjsClipPath4205"><circle r="126" cx="352.09" cy="465.58"></circle></clipPath><pattern x="0" y="0" width="6" height="6" patternUnits="userSpaceOnUse" id="SvgjsPattern4208"><path d="M0 6L3 0L6 6" stroke="rgba(176, 141, 29, 1)" fill="none"></path></pattern><clipPath id="SvgjsClipPath4207"><circle r="78" cx="1724.13" cy="696.44"></circle></clipPath><pattern x="0" y="0" width="120" height="6" patternUnits="userSpaceOnUse" id="SvgjsPattern4210"><rect width="120" height="3" x="0" y="0" fill="rgba(176, 141, 29, 1)"></rect><rect width="120" height="3" x="0" y="3" fill="rgba(0, 0, 0, 0)"></rect></pattern><clipPath id="SvgjsClipPath4209"><circle r="30" cx="553.13" cy="377.86"></circle></clipPath><pattern x="0" y="0" width="181.12" height="11.32" patternUnits="userSpaceOnUse" id="SvgjsPattern4212"><rect width="181.12" height="5.66" x="0" y="0" fill="rgba(176, 141, 29, 1)"></rect><rect width="181.12" height="5.66" x="0" y="5.66" fill="rgba(0, 0, 0, 0)"></rect></pattern><clipPath id="SvgjsClipPath4211"><circle r="45.28" cx="1404.01" cy="699.06"></circle></clipPath></defs></svg>